<?xml version="1.0" encoding="UTF-8"?><svg id="a" xmlns="http://www.w3.org/2000/svg" viewBox="0 0 804.2857 736.1232"><defs><style>.b{opacity:.5;}.c{fill:#333;}.d{fill:#f7931e;}</style></defs><g class="b"><rect class="c" x="305.1069" y="113.2267" width="371.7573" height="122.1676"/><path class="c" d="M676.8636,243.2758H305.107c-4.3527,0-7.8818-3.5291-7.8818-7.8818V113.2264c0-4.3527,3.5291-7.8818,7.8818-7.8818h371.7566c4.3527,0,7.8818,3.5291,7.8818,7.8818v122.1676c0,4.3527-3.5291,7.8818-7.8818,7.8818Zm-363.8749-15.7636h355.9931V121.1082H312.9888v106.404Z"/></g><g class="b"><rect class="c" x="305.1069" y="500.7475" width="371.7573" height="122.1676"/><path class="c" d="M676.8636,630.7973H305.107c-4.3527,0-7.8818-3.5291-7.8818-7.8818v-122.1676c0-4.3527,3.5291-7.8818,7.8818-7.8818h371.7566c4.3527,0,7.8818,3.5291,7.8818,7.8818v122.1676c0,4.3527-3.5291,7.8818-7.8818,7.8818Zm-363.8749-15.7636h355.9931v-106.404H312.9888v106.404Z"/></g><g><rect class="d" x="188.1938" y="269.5486" width="604.2698" height="198.5763"/><path class="d" d="M792.463,479.9479H188.1939c-6.5297,0-11.8227-5.293-11.8227-11.8227v-198.5768c0-6.5297,5.293-11.8227,11.8227-11.8227H792.463c6.5297,0,11.8227,5.293,11.8227,11.8227v198.5768c0,6.5297-5.293,11.8227-11.8227,11.8227Zm-592.4465-23.6453H780.6404v-174.9315H200.0166v174.9315Z"/></g><g><rect class="d" x="107.528" y="113.5963" width="169.9926" height="121.798"/><path class="d" d="M277.5207,243.2758H107.5282c-4.3527,0-7.8818-3.5291-7.8818-7.8818V113.5965c0-4.3527,3.5291-7.8818,7.8818-7.8818h169.9926c4.3527,0,7.8818,3.5291,7.8818,7.8818v121.7975c0,4.3527-3.5291,7.8818-7.8818,7.8818Zm-162.1108-15.7636h154.229V121.4783H115.41v106.0339Z"/></g><g><rect class="d" x="107.9177" y="501.411" width="169.9926" height="121.798"/><path class="d" d="M277.9101,631.091H107.9175c-4.3527,0-7.8818-3.5291-7.8818-7.8818v-121.7981c0-4.3527,3.5291-7.8818,7.8818-7.8818h169.9926c4.3527,0,7.8818,3.5291,7.8818,7.8818v121.7981c0,4.3527-3.5291,7.8818-7.8818,7.8818Zm-162.1108-15.7636h154.229v-106.0346H115.7993v106.0346Z"/></g><path class="d" d="M107.8919,425.7004c-2.0173,0-4.0345-.7697-5.5733-2.3091-3.0782-3.0775-3.0782-8.0678,0-11.1453l42.8604-42.861-42.8604-42.8604c-3.0782-3.0782-3.0782-8.0684,0-11.1466s8.0691-3.0775,11.1466,0l48.4337,48.4343c3.0782,3.0775,3.0782,8.0678,0,11.1453l-48.4337,48.4337c-1.5388,1.5394-3.556,2.3091-5.5733,2.3091Z"/><path class="d" d="M156.6668,377.2667H12.1675c-4.3533,0-7.8818-3.5291-7.8818-7.8818s3.5285-7.8818,7.8818-7.8818H156.6668c4.3533,0,7.8818,3.5291,7.8818,7.8818s-3.5285,7.8818-7.8818,7.8818Z"/></svg>