<?xml version="1.0" encoding="UTF-8"?><svg id="a" xmlns="http://www.w3.org/2000/svg" viewBox="0 0 800 736.1232"><defs><style>.b{opacity:.5;}.c{fill:#a1393e;}</style></defs><g class="b"><rect class="c" x="329.2857" y="246.2178" width="283" height="93"/><path class="c" d="M612.2857,345.2178H329.2857c-3.3135,0-6-2.6865-6-6v-93c0-3.3135,2.6865-6,6-6h283c3.3135,0,6,2.6865,6,6v93c0,3.3135-2.6865,6-6,6Zm-277-12h271v-81H335.2857v81Z"/></g><g class="b"><rect class="c" x="329.2857" y="541.2178" width="283" height="93"/><path class="c" d="M612.2857,640.2178H329.2857c-3.3135,0-6-2.6865-6-6v-93c0-3.3135,2.6865-6,6-6h283c3.3135,0,6,2.6865,6,6v93c0,3.3135-2.6865,6-6,6Zm-277-12h271v-81H335.2857v81Z"/></g><g><path class="c" d="M241.5079,73.7086c1.3584-1.0806,2.0186-2.6709,2.0186-4.8608,0-2.2534-.5366-3.8179-1.6406-4.7837-1.1675-1.0195-3.1758-1.5366-5.9688-1.5366h-3.5078v12.9531h1.9844c3.2427,0,5.6362-.5962,7.1143-1.772Z"/><path class="c" d="M742.4054,0H66.541c-16.64,0-30.1294,13.4894-30.1294,30.1294V705.9938c0,16.64,13.4894,30.1294,30.1294,30.1294H742.4054c16.64,0,30.1294-13.4894,30.1294-30.1294V30.1294c0-16.64-13.4894-30.1294-30.1294-30.1294Zm-124.1197,246.2178v93c0,3.3135-2.6865,6-6,6H329.2857c-3.3135,0-6-2.6865-6-6v-93c0-3.3135,2.6865-6,6-6h283c3.3135,0,6,2.6865,6,6ZM413.2213,64.7725c3.3389-2.3555,8.0303-3.5498,13.9463-3.5498,5.5244,0,10.9707,1.2183,16.1885,3.6211l1.7529,.8071-5.1172,12.2363-1.8545-.7949c-2.1094-.9038-4.1094-1.6562-5.9463-2.2358-1.6982-.5347-3.4541-.8057-5.2188-.8057-1.5762,0-3.2734,.2666-3.2734,.8516,0,.1509,0,.5513,.835,1.127,.6924,.4775,2.4766,1.4316,7.0508,3.2671,3.6123,1.4624,6.2139,2.811,7.959,4.126,1.8369,1.3867,3.2207,3.0239,4.1123,4.8667,.8838,1.8306,1.332,4.0024,1.332,6.457,0,5.1196-1.8389,9.1006-5.4648,11.832-3.4521,2.5996-8.5557,3.918-15.168,3.918-3.2891,0-6.1494-.229-8.502-.6802-2.3711-.4551-4.625-1.1343-6.6973-2.0195l-1.2148-.5186v-14.3169l2.8516,1.3428c2.085,.9819,4.4805,1.8188,7.1201,2.4883,2.6006,.6592,4.8994,.9932,6.833,.9932,2.9756,0,4.4844-.5889,4.4844-1.75,0-.5234-.1553-.7495-.29-.8877-.2383-.2437-.8779-.7798-2.4717-1.6211-1.3428-.7085-3.1836-1.5581-5.4697-2.5239-3.5449-1.4839-6.1094-2.8442-7.835-4.1567-1.8301-1.3901-3.1904-3.0308-4.042-4.874-.835-1.8042-1.2588-4.0122-1.2588-6.5615,0-4.5493,1.8027-8.1284,5.3584-10.6377Zm-55.2808-19.8389h15.9141v14.3828c0,.8447-.0649,2.6001-.1987,5.3457,2.8408-2.2856,6.499-3.4395,10.9331-3.4395,5.6704,0,10.0845,1.5996,13.1206,4.7539,3.0151,3.1333,4.5435,7.5952,4.5435,13.2617v30.4766h-15.9141v-27.5078c0-7.4531-3.5259-7.4531-5.0312-7.4531-2.6372,0-4.4541,.8159-5.5537,2.4946-1.2603,1.9238-1.8994,5.2612-1.8994,9.9194v22.5469h-15.9141V44.9337Zm-37.0635,19.8389c3.3384-2.3555,8.0308-3.5498,13.9463-3.5498,5.5249,0,10.9712,1.2183,16.188,3.6211l1.7534,.8071-5.1167,12.2363-1.8545-.7949c-2.1094-.9038-4.1104-1.6562-5.9468-2.2358-1.6982-.5347-3.4541-.8057-5.2188-.8057-1.5767,0-3.2734,.2666-3.2734,.8516,0,.1509,0,.5513,.8345,1.127,.6924,.4775,2.4775,1.4316,7.0508,3.2671,3.6128,1.4624,6.2144,2.811,7.959,4.126,1.8374,1.3867,3.2207,3.0239,4.1123,4.8667,.8843,1.8306,1.3325,4.0024,1.3325,6.457,0,5.1196-1.8384,9.1006-5.4648,11.832-3.4521,2.5996-8.5557,3.918-15.168,3.918-3.2886,0-6.1494-.229-8.502-.6802-2.3711-.4551-4.6245-1.1343-6.6973-2.0195l-1.2148-.5186v-14.3169l2.8521,1.3428c2.085,.9819,4.4805,1.8188,7.1201,2.4883,2.5996,.6592,4.8984,.9932,6.8325,.9932,2.9756,0,4.4844-.5889,4.4844-1.75,0-.5234-.1553-.7495-.29-.8877-.2383-.2437-.8784-.7798-2.4717-1.6211-1.3433-.7085-3.1831-1.5581-5.4697-2.5239-3.5449-1.4839-6.1099-2.8442-7.835-4.1567-1.8301-1.3901-3.1909-3.0308-4.0425-4.874-.8345-1.8042-1.2583-4.0122-1.2583-6.5615,0-4.5493,1.8027-8.1284,5.3584-10.6377Zm-6.5913,181.7266v92.7188c0,3.3135-2.6865,6-6,6H178.879c-3.3135,0-6-2.6865-6-6v-92.7188c0-3.3135,2.6865-6,6-6h129.4067c3.3135,0,6,2.6865,6,6Zm-48.9233-184.4561h15.9141v27.5078c0,2.7134,.4404,4.709,1.3096,5.9307,.4644,.6543,1.3545,1.5225,3.7217,1.5225,2.644,0,4.4639-.8013,5.5625-2.4492,.8623-1.2939,1.8906-4.0728,1.8906-9.9648v-22.5469h15.9141v47.6719h-12.6479l-1.1255-3.9258c-1.1782,1.146-2.5723,2.1016-4.1694,2.8555-2.6025,1.2285-5.584,1.8516-8.8618,1.8516-5.6782,0-10.0703-1.5967-13.0532-4.7456-2.9556-3.1172-4.4546-7.5688-4.4546-13.231v-30.4766Zm-49.0625-13.4375h20.2422c7.3711,0,13.1157,1.6592,17.0747,4.9312,4.0718,3.3672,6.1362,8.374,6.1362,14.8813,0,6.7319-2.1763,11.9897-6.4688,15.6274-4.1943,3.5547-10.1426,5.3569-17.6797,5.3569h-3.1953v20.3125h-16.1094V48.6055Zm-80.781,.441h17.1291l23.4408,40.4218c-.2623-5.4611-.3952-9.4998-.3952-12.0348v-28.387h13.1658v59.8522h-17.2501l-23.5129-40.8887c.3384,5.7076,.5093,9.9563,.5093,12.6596v28.2291h-13.0869V49.0466Zm-48.0676,56.7637v-13.6991l1.5165,.6764c3.822,1.7046,7.0928,2.9199,9.7217,3.6123,2.5941,.6835,4.9911,1.03,7.1249,1.03,2.4413,0,4.3085-.4501,5.5495-1.3378,1.1437-.8188,1.6998-2.0298,1.6998-3.7015,0-.9088-.2439-1.6909-.7456-2.3913-.5522-.7709-1.3947-1.537-2.5039-2.2766-1.1755-.783-3.6465-2.0719-7.3435-3.8304-3.5944-1.6896-6.3464-3.3502-8.1749-4.9338-1.8588-1.6085-3.3642-3.5081-4.4736-5.6458-1.1279-2.1711-1.6999-4.7281-1.6999-7.6,0-5.4127,1.8748-9.7396,5.5724-12.8601,3.6428-3.0754,8.7029-4.6347,15.0401-4.6347,3.0775,0,6.0568,.3702,8.8553,1.1005,2.7589,.7195,5.6863,1.7467,8.7009,3.0532l.9734,.4218-4.7644,11.4823-.9932-.4076c-3.0148-1.2368-5.5339-2.11-7.4869-2.5952-1.9206-.4764-3.8317-.718-5.6797-.718-2.0363,0-3.5905,.4551-4.6191,1.3525-.9998,.8719-1.4857,1.9877-1.4857,3.4105,0,.8817,.1921,1.6183,.587,2.2521,.418,.672,1.1187,1.3478,2.0824,2.0093,1.04,.7148,3.6002,2.0474,7.6095,3.9614,5.6011,2.6783,9.3555,5.3177,11.4784,8.0692,2.1392,2.773,3.2237,6.2012,3.2237,10.1887,0,5.5284-2.028,9.954-6.0278,13.1542-3.928,3.1422-9.4194,4.7352-16.3212,4.7352-6.293,0-11.9493-1.2053-16.8116-3.5823l-.6043-.2955Zm18.8345,341.4076c-3.314,0-6-2.6865-6-6s2.686-6,6-6h95.2549l-26.6275-26.6279c-2.3433-2.3428-2.3433-6.1416,0-8.4844,2.3428-2.3438,6.1426-2.3438,8.4854,0l35.9747,35.9747c1.7429,1.0499,2.9125,2.9548,2.9125,5.1376s-1.1696,4.0877-2.9125,5.1376l-35.9747,35.9747c-1.1714,1.1719-2.707,1.7578-4.2427,1.7578s-3.0713-.5859-4.2427-1.7578c-2.3433-2.3428-2.3433-6.1416,0-8.4844l26.6275-26.6279H106.2857Zm208.2964,187.2236c0,3.3135-2.6865,6-6,6H179.1754c-3.3135,0-6-2.6865-6-6v-92.7188c0-3.3135,2.6865-6,6-6h129.4067c3.3135,0,6,2.6865,6,6v92.7188Zm303.7036-.2236c0,3.3135-2.6865,6-6,6H329.2857c-3.3135,0-6-2.6865-6-6v-93c0-3.3135,2.6865-6,6-6h283c3.3135,0,6,2.6865,6,6v93Zm91-117.834c0,4.9707-4.0293,9-9,9H240.2857c-4.9707,0-9-4.0293-9-9v-151.166c0-4.9707,4.0293-9,9-9h460c4.9707,0,9,4.0293,9,9v151.166Z"/></g></svg>